<svg width="512" height="620" viewBox="0 0 512 620" fill="none" xmlns="http://www.w3.org/2000/svg">
<path d="M338.767 14.3809C320.683 96.2946 292.045 214.347 252.686 307.125C229.589 361.567 225.362 420.861 241.647 468.748C257.766 516.145 294.141 552.219 350.376 559.414L344.111 600.003C308.421 607.986 262.07 608.639 218.55 597.949C173.694 586.932 133.492 564.321 110.134 527.24C93.3067 500.527 89.7998 467.42 93.6699 434.282C97.5289 401.24 108.574 369.624 119.031 347.457C126.014 332.655 115.821 314.089 98.1582 314.089H13.7021V180.687H134.885C147.497 180.687 157.722 170.462 157.723 157.85V18.6895C157.984 18.5502 158.255 18.4465 158.488 18.3906C158.54 18.3782 158.583 18.3719 158.616 18.3662C180.529 22.789 214.014 23.0234 247.688 21.5762C279.359 20.215 312.443 17.2948 338.767 14.3809ZM397.814 304.538C453.31 304.538 498.298 349.526 498.298 405.021C498.298 460.517 453.31 505.506 397.814 505.506C342.319 505.506 297.33 460.517 297.33 405.021C297.33 349.526 342.319 304.538 397.814 304.538Z" fill="#1A1643" stroke="#6352FF" stroke-width="27.4046"/>
</svg>
